<svg width="200" height="40" viewBox="0 0 3564 683" fill="none" xmlns="http://www.w3.org/2000/svg">
<path d="M581 387.5C586.523 387.5 591.018 391.979 590.831 397.499C588.86 455.722 569.716 512.148 535.696 559.622C499.732 609.81 448.951 647.471 390.485 667.318C332.019 687.164 268.805 688.199 209.721 670.276C150.637 652.353 98.6507 616.373 61.0641 567.389C23.4775 518.405 2.17838 458.878 0.158215 397.168C-1.86195 335.459 15.4983 274.666 49.8007 223.329C84.1032 171.992 133.625 132.689 191.41 110.94C246.071 90.3667 305.53 86.4786 362.279 99.6444C367.659 100.893 370.822 106.394 369.393 111.728L298.873 374.912C297.171 381.263 301.957 387.5 308.532 387.5H581Z" fill="#3D3C42"/>
<circle cx="295.5" cy="387.5" r="237.5" fill="#3D3C42"/>
<path d="M523 387.5C528.523 387.5 533.022 391.98 532.79 397.498C530.848 443.598 515.511 488.216 488.551 525.838C459.646 566.175 418.832 596.445 371.842 612.396C324.851 628.347 274.045 629.178 226.557 614.773C179.07 600.368 137.288 571.45 107.079 532.081C76.8694 492.711 59.7508 444.868 58.1272 395.271C56.5035 345.673 70.4563 296.813 98.026 255.552C125.596 214.291 165.397 182.702 211.841 165.222C255.159 148.918 302.226 145.652 347.258 155.708C352.648 156.912 355.811 162.417 354.381 167.752L298.873 374.912C297.171 381.263 301.957 387.5 308.532 387.5H523Z" fill="url(#paint0_linear)"/>
<path d="M532 387.5C532.552 387.5 533 387.948 532.998 388.501C532.79 437.774 517.262 485.773 488.551 525.838C459.646 566.175 418.832 596.445 371.842 612.396C324.851 628.347 274.045 629.178 226.557 614.773C179.07 600.368 137.288 571.45 107.079 532.081C76.8694 492.711 59.7508 444.868 58.1272 395.271C56.5035 345.673 70.4563 296.813 98.026 255.552C125.596 214.291 165.397 182.702 211.841 165.222C257.972 147.86 308.354 145.283 356.002 157.836C356.536 157.976 356.854 158.525 356.711 159.059L295.837 386.241C295.667 386.876 296.146 387.5 296.803 387.5H532Z" fill="url(#paint1_linear)"/>
<path d="M691 340C696.523 340 701.015 335.52 700.853 330C698.756 258.692 674.271 189.752 630.74 133.021C587.209 76.2902 526.955 34.7971 458.62 14.3154C453.329 12.7298 447.84 15.9098 446.41 21.2445L364.373 327.412C362.671 333.763 367.457 340 374.032 340H691Z" fill="url(#paint2_linear)"/>
<path d="M843.1 485C830.18 485 819.16 480.567 810.04 471.7C801.173 462.58 796.74 451.687 796.74 439.02V310.58C796.74 297.913 801.173 287.147 810.04 278.28C819.16 269.16 830.18 264.6 843.1 264.6H990.16V192.4H1021.32V485H843.1ZM843.1 453.84H975.34C979.393 453.84 982.813 452.447 985.6 449.66C988.64 446.62 990.16 443.073 990.16 439.02V310.58C990.16 306.527 988.64 303.107 985.6 300.32C982.813 297.28 979.393 295.76 975.34 295.76H843.1C839.047 295.76 835.5 297.28 832.46 300.32C829.673 303.107 828.28 306.527 828.28 310.58V439.02C828.28 443.073 829.673 446.62 832.46 449.66C835.5 452.447 839.047 453.84 843.1 453.84ZM1099.4 485C1086.73 485 1075.84 480.567 1066.72 471.7C1057.85 462.58 1053.42 451.687 1053.42 439.02V310.58C1053.42 297.913 1057.85 287.147 1066.72 278.28C1075.84 269.16 1086.73 264.6 1099.4 264.6H1231.64C1244.56 264.6 1255.45 269.16 1264.32 278.28C1273.44 287.147 1278 297.913 1278 310.58V390.38H1084.58V439.02C1084.58 443.073 1085.97 446.62 1088.76 449.66C1091.8 452.447 1095.34 453.84 1099.4 453.84H1278V485H1099.4ZM1084.58 359.22H1246.46V310.58C1246.46 306.527 1244.94 303.107 1241.9 300.32C1239.11 297.28 1235.69 295.76 1231.64 295.76H1099.4C1095.34 295.76 1091.8 297.28 1088.76 300.32C1085.97 303.107 1084.58 306.527 1084.58 310.58V359.22ZM1419.3 485L1297.7 264.6H1334.18L1437.54 454.6L1540.9 264.6H1577.38L1455.4 485H1419.3ZM1611.97 485V257C1611.97 244.333 1616.41 233.567 1625.27 224.7C1634.14 215.833 1644.91 211.4 1657.57 211.4H1839.97C1852.64 211.4 1863.41 215.833 1872.27 224.7C1881.14 233.567 1885.57 244.333 1885.57 257V485H1854.79V385.06H1642.75V485H1611.97ZM1642.75 354.28H1854.79V257C1854.79 252.947 1853.27 249.527 1850.23 246.74C1847.45 243.7 1844.03 242.18 1839.97 242.18H1657.57C1653.52 242.18 1649.97 243.7 1646.93 246.74C1644.15 249.527 1642.75 252.947 1642.75 257V354.28ZM1928.11 485V264.6H2106.71C2119.38 264.6 2130.14 269.16 2139.01 278.28C2148.13 287.147 2152.69 297.913 2152.69 310.58V485H2121.53V310.58C2121.53 306.527 2120.01 303.107 2116.97 300.32C2114.18 297.28 2110.76 295.76 2106.71 295.76H1974.47C1970.42 295.76 1966.87 297.28 1963.83 300.32C1960.79 303.107 1959.27 306.527 1959.27 310.58V485H1928.11ZM2237.92 485C2225.25 485 2214.36 480.567 2205.24 471.7C2196.37 462.58 2191.94 451.687 2191.94 439.02V359.22H2384.98V310.58C2384.98 306.527 2383.46 303.107 2380.42 300.32C2377.63 297.28 2374.21 295.76 2370.16 295.76H2191.94V264.6H2370.16C2383.08 264.6 2393.97 269.16 2402.84 278.28C2411.96 287.147 2416.52 297.913 2416.52 310.58V485H2237.92ZM2237.92 453.84H2384.98V390.38H2223.1V439.02C2223.1 443.073 2224.49 446.62 2227.28 449.66C2230.32 452.447 2233.87 453.84 2237.92 453.84ZM2498.06 485C2485.39 485 2474.5 480.567 2465.38 471.7C2456.51 462.58 2452.08 451.687 2452.08 439.02V192.4H2483.24V439.02C2483.24 443.073 2484.63 446.62 2487.42 449.66C2490.46 452.447 2494 453.84 2498.06 453.84H2535.3V485H2498.06ZM2603.6 572.4V540.86H2741.16C2745.22 540.86 2748.64 539.34 2751.42 536.3C2754.46 533.513 2755.98 530.093 2755.98 526.04V485H2608.92C2596.26 485 2585.36 480.567 2576.24 471.7C2567.38 462.58 2562.94 451.687 2562.94 439.02V265.36H2594.1V439.02C2594.1 443.073 2595.5 446.62 2598.28 449.66C2601.32 452.447 2604.87 453.84 2608.92 453.84H2741.16C2745.22 453.84 2748.64 452.447 2751.42 449.66C2754.46 446.62 2755.98 443.073 2755.98 439.02V265.36H2787.14V526.04C2787.14 538.96 2782.71 549.853 2773.84 558.72C2764.98 567.84 2754.08 572.4 2741.16 572.4H2603.6ZM2873.24 485C2860.32 485 2849.43 480.567 2840.56 471.7C2831.69 462.58 2827.26 451.687 2827.26 439.02V192.4H2858.42V264.6H2953.8V295.76H2858.42V439.02C2858.42 443.073 2859.81 446.62 2862.6 449.66C2865.64 452.447 2869.19 453.84 2873.24 453.84H2953.8V485H2873.24ZM2984.6 485V264.6H3015.76V485H2984.6ZM2984.6 223.56V192.4H3015.76V223.56H2984.6ZM3103.67 485C3091.01 485 3080.11 480.567 3070.99 471.7C3062.13 462.58 3057.69 451.687 3057.69 439.02V310.58C3057.69 297.913 3062.13 287.147 3070.99 278.28C3080.11 269.16 3091.01 264.6 3103.67 264.6H3281.51V295.76H3103.67C3099.62 295.76 3096.07 297.28 3093.03 300.32C3090.25 303.107 3088.85 306.527 3088.85 310.58V439.02C3088.85 443.073 3090.25 446.62 3093.03 449.66C3096.07 452.447 3099.62 453.84 3103.67 453.84H3282.27V485H3103.67ZM3366.75 485C3354.08 485 3343.19 480.567 3334.07 471.7C3325.2 462.58 3320.77 451.687 3320.77 439.02V435.98H3351.93V439.02C3351.93 443.073 3353.32 446.62 3356.11 449.66C3359.15 452.447 3362.7 453.84 3366.75 453.84H3498.99C3503.04 453.84 3506.46 452.447 3509.25 449.66C3512.29 446.62 3513.81 443.073 3513.81 439.02V405.2C3513.81 401.147 3512.29 397.727 3509.25 394.94C3506.46 391.9 3503.04 390.38 3498.99 390.38H3366.75C3354.08 390.38 3343.19 385.947 3334.07 377.08C3325.2 367.96 3320.77 357.067 3320.77 344.4V310.58C3320.77 297.913 3325.2 287.147 3334.07 278.28C3343.19 269.16 3354.08 264.6 3366.75 264.6H3498.99C3511.91 264.6 3522.8 269.16 3531.67 278.28C3540.79 287.147 3545.35 297.913 3545.35 310.58V313.62H3513.81V310.58C3513.81 306.527 3512.29 303.107 3509.25 300.32C3506.46 297.28 3503.04 295.76 3498.99 295.76H3366.75C3362.7 295.76 3359.15 297.28 3356.11 300.32C3353.32 303.107 3351.93 306.527 3351.93 310.58V344.4C3351.93 348.453 3353.32 352 3356.11 355.04C3359.15 357.827 3362.7 359.22 3366.75 359.22H3498.99C3511.91 359.22 3522.8 363.78 3531.67 372.9C3540.79 381.767 3545.35 392.533 3545.35 405.2V439.02C3545.35 451.687 3540.79 462.58 3531.67 471.7C3522.8 480.567 3511.91 485 3498.99 485H3366.75Z" fill="#E1E1E6"/>
<defs>
<linearGradient id="paint0_linear" x1="295.5" y1="155.7" x2="295.5" y2="625" gradientUnits="userSpaceOnUse">
<stop offset="0.401042" stop-color="#FF4D00"/>
<stop offset="1" stop-color="#FCD46F"/>
</linearGradient>
<linearGradient id="paint1_linear" x1="295.5" y1="155.7" x2="295.5" y2="625" gradientUnits="userSpaceOnUse">
<stop offset="0.401042" stop-color="#FF4D00"/>
<stop offset="1" stop-color="#FCD46F"/>
</linearGradient>
<linearGradient id="paint2_linear" x1="361" y1="8.16" x2="361" y2="680" gradientUnits="userSpaceOnUse">
<stop offset="0.401042" stop-color="#FF4D00"/>
<stop offset="1" stop-color="#FCD46F"/>
</linearGradient>
</defs>
</svg>
